# xmcd
#
# Track frame offsets: 
#        150
#        23763
#        43255
#        67162
#        90311
#        115012
#        136579
#        159520
#        183091
#        207311
#
# Disc length: 2941 seconds
#
# Revision: 4
# Processed by: cddbd v1.5.1PL2 Copyright (c) Steve Scherf et al.
# Submitted via: ExactAudioCopy v0.90b4
#
DISCID=7c0b7b0a
DTITLE=Chuck Loeb - All There Is
DYEAR=2002
DGENRE=Jazz
TTITLE0=As Is
TTITLE1=Sierra Nevada
TTITLE2=True or False
TTITLE3=Golden Heart
TTITLE4=Sarao
TTITLE5=Fundamentally Sound
TTITLE6=In the Hands
TTITLE7=Tenerife Blue
TTITLE8=Bread and Butter
TTITLE9=Love Is All There Is
EXTD=YEAR: 2002
EXTT0=
EXTT1=
EXTT2=
EXTT3=
EXTT4=
EXTT5=
EXTT6=
EXTT7=
EXTT8=
EXTT9=
PLAYORDER=
